<?xml version="1.0" encoding="UTF-8"?>
<svg width="18px" height="18px" viewBox="0 0 18 18" version="1.1" xmlns="http://www.w3.org/2000/svg" xmlns:xlink="http://www.w3.org/1999/xlink">
    <!-- Generator: Sketch 44.1 (41455) - http://www.bohemiancoding.com/sketch -->
    <title>Tire</title>
    <desc>Created with Sketch.</desc>
    <defs></defs>
    <g id="Symbols" stroke="none" stroke-width="1" fill="none" fill-rule="evenodd">
        <g id="Icon---Tire-Install" transform="translate(-7.000000, -7.000000)" fill="#364347">
            <path d="M18.0940686,16.6461295 L22.0234094,15.0720954 C22.0779836,15.3848916 22.0978027,15.7068792 22.0952176,16.022835 C22.0923453,17.6431136 21.4604337,19.159414 20.3172483,20.2968548 L18.0940686,16.6461295 Z M17.04567,17.9271866 C17.2148499,17.8355594 17.3699555,17.7203791 17.5081143,17.5882522 L19.7944851,20.7705012 C19.7916128,20.7765331 19.7916128,20.7765331 19.7858682,20.7822778 C19.644837,20.8856815 19.51271,20.9919575 19.3521471,21.0953612 C19.3492747,21.0953612 19.3461152,21.1011058 19.3435301,21.1068505 L17.04567,17.9271866 Z M21.7042941,13.8513572 C21.710326,13.8685911 21.710326,13.8769209 21.718943,13.8944421 C21.7850065,14.0527072 21.8367083,14.2276318 21.8769209,14.3769927 C21.8769209,14.3827373 21.8769209,14.3827373 21.8797932,14.3887692 L18.1483556,15.5836565 C18.1138877,15.3966681 18.0535689,15.2185839 17.973431,15.0519891 L21.7042941,13.8513572 Z M17.284073,14.2247594 L17.0025851,9.99095218 C18.892575,10.298291 20.526928,11.4989229 21.4202212,13.2022117 L17.284073,14.2247594 Z M15.7129111,13.8312509 L15.7330174,9.91368663 C15.755996,9.90765475 15.7789746,9.90478242 15.7990809,9.90478242 C15.8593997,9.9019101 15.9168462,9.9019101 15.9800373,9.9019101 L16.0662071,9.9019101 C16.1236536,9.9019101 16.1897171,9.9019101 16.2928335,9.91368663 L16.3046101,9.91368663 L16.2902485,13.8312509 C16.1954617,13.8168893 16.0978027,13.8111446 16.0001436,13.8111446 C15.9024846,13.8111446 15.8076978,13.8168893 15.7129111,13.8312509 L15.7129111,13.8312509 Z M16.0001436,15.1180526 C16.4884389,15.1180526 16.8848198,15.5147207 16.8848198,16.0027287 C16.8848198,16.4881517 16.4884389,16.8845325 16.0001436,16.8845325 C15.5147207,16.8845325 15.1183398,16.4881517 15.1183398,16.0027287 C15.1183398,15.5147207 15.5147207,15.1180526 16.0001436,15.1180526 L16.0001436,15.1180526 Z M15.9714204,18.1914405 L18.7228206,21.4515295 C17.8786443,21.8852506 16.9480109,22.100675 15.9800373,22.100675 C15.0034468,22.0952176 14.0699411,21.8651443 13.2283498,21.4259658 L15.9714204,18.1914405 Z M14.474939,17.5713055 C14.6099382,17.7057303 14.7650438,17.8209105 14.9316387,17.9099526 L12.6107999,21.0637656 L12.593566,21.0465317 C12.4470774,20.9574896 12.3063335,20.8515008 12.1914405,20.7538417 L12.1655895,20.7334482 L14.474939,17.5713055 Z M13.9062186,16.6403849 L11.639954,20.2540572 C10.5140026,19.1022548 9.89358035,17.5882522 9.899325,15.9740055 C9.90219733,15.660922 9.93379291,15.3507109 9.98262243,15.0318828 L10.022835,15.0462444 L13.9062186,16.6403849 Z M10.6087893,13.1648715 C11.5078271,11.464455 13.1507971,10.2781847 15.040787,9.97946288 L14.7334482,14.2132701 L14.7334482,14.2161425 L14.7305759,14.2161425 L10.6087893,13.1648715 Z M14.0383455,15.0376275 C13.9521758,15.2042223 13.891857,15.3848916 13.8516444,15.5718799 L10.1319833,14.3425248 C10.1348557,14.3367801 10.137728,14.3281631 10.1406003,14.3195462 C10.1836852,14.1558236 10.2411317,13.9921011 10.3014505,13.8312509 C10.3043228,13.8280913 10.3071952,13.8143042 10.3129398,13.8082723 L14.0383455,15.0376275 Z M16.0001436,7 C11.0295849,7 7,11.0292977 7,15.9998564 C7,20.9704151 11.0295849,24.9997128 16.0001436,24.9997128 C20.9707023,24.9997128 25,20.9704151 25,15.9998564 C25,11.0292977 20.9707023,7 16.0001436,7 L16.0001436,7 Z" id="Tire"></path>
        </g>
    </g>
</svg>