<?xml version="1.0" encoding="UTF-8"?>
<svg width="12px" height="18px" viewBox="0 0 12 18" version="1.1" xmlns="http://www.w3.org/2000/svg" xmlns:xlink="http://www.w3.org/1999/xlink">
    <!-- Generator: Sketch 44.1 (41455) - http://www.bohemiancoding.com/sketch -->
    <title>Winch</title>
    <desc>Created with Sketch.</desc>
    <defs></defs>
    <g id="Symbols" stroke="none" stroke-width="1" fill="none" fill-rule="evenodd">
        <g id="Icon---Winch" transform="translate(-10.000000, -7.000000)" fill="#364347">
            <path d="M11.6532799,10.2306577 C12.1102161,10.6570139 12.566122,11.0853394 13.0452096,11.4880639 C13.179148,11.6003147 13.391389,11.6840105 13.5685998,11.6849952 C15.5843736,11.6987804 17.6006625,11.6987804 19.6169514,11.6849952 C19.7941623,11.6840105 20.0058881,11.6003147 20.1398265,11.4875716 C20.6194292,11.0853394 21.0737897,10.6555369 21.5327865,10.23115 C21.600786,10.1686243 21.6873308,10.0814822 21.6888763,10.0041867 C21.7022701,9.4281627 21.6960884,8.85164637 21.6960884,8.26085253 C20.5612175,8.26085253 19.4958917,8.25445226 18.4310809,8.26528348 C18.1580525,8.26774512 18.041114,8.18749563 18.0565684,7.91622279 C18.0740834,7.61147163 18.0606896,7.30475116 18.0606896,7 L15.1598917,7 L15.1598917,8.23623612 L11.4868871,8.23623612 C11.4868871,8.85755431 11.4791599,9.41093121 11.4940992,9.96381579 C11.496675,10.0548965 11.5785835,10.1607471 11.6532799,10.2306577 Z M18.6222008,12.1876623 C18.6222008,12.4766589 18.6340492,12.755809 18.6201402,13.0344668 C18.5758375,13.9113033 18.9766226,14.55133 19.6947387,15.0781212 C21.5410288,16.4315314 22.2879933,18.2684079 21.9006021,20.4213592 C21.4931201,22.6885305 20.0357667,24.2024398 17.6975103,24.8075111 C14.053354,25.7513043 10.4596822,23.1020862 10.4725609,19.5356607 C10.4741064,19.0492405 10.5894995,18.5943292 10.9305274,18.2167135 C11.2190102,17.8981771 11.1711015,17.6022879 10.8867398,17.3167375 C10.671408,17.1006054 10.4359854,16.9021972 10.2319868,16.6772032 C9.82450484,16.2262305 9.96101904,15.8067669 10.5848632,15.7289791 C11.4379481,15.6216515 12.1771853,15.9278796 12.7665145,16.5137502 C13.2847533,17.0292178 13.4872065,17.6441358 13.3661467,18.3762278 C13.1776026,19.5130136 13.8684159,20.5065319 14.9981353,20.8053752 C16.1453697,21.1086493 17.316816,20.5872738 17.828873,19.5455073 C18.3192938,18.5470657 17.9586903,17.299506 17.0010303,16.7042812 C16.8006378,16.5797222 16.592518,16.4576248 16.3720347,16.372452 C15.359254,15.9815434 14.767349,15.2514207 14.63135,14.2436249 C14.5422294,13.5804588 14.6148652,12.8971072 14.6148652,12.1876623 L18.6222008,12.1876623 Z" id="Winch"></path>
        </g>
    </g>
</svg>