<?xml version="1.0" encoding="UTF-8"?>
<svg width="22px" height="12px" viewBox="0 0 22 12" version="1.1" xmlns="http://www.w3.org/2000/svg" xmlns:xlink="http://www.w3.org/1999/xlink">
    <!-- Generator: Sketch 44.1 (41455) - http://www.bohemiancoding.com/sketch -->
    <title>Tow Truck</title>
    <desc>Created with Sketch.</desc>
    <defs></defs>
    <g id="Symbols" stroke="none" stroke-width="1" fill="none" fill-rule="evenodd">
        <g id="Icon---Tow-Truck" transform="translate(-5.000000, -10.000000)" fill="#364347">
            <path d="M26.9169931,19.3183316 L25.2963504,17.5051953 C25.2395853,17.4412141 25.1605873,17.4054451 25.0778049,17.4054451 L24.372972,17.4054451 C24.372972,17.4049413 24.373445,17.4049413 24.373445,17.4044375 L24.373445,16.9873003 C24.373445,16.7832658 24.2178141,16.6170155 24.026232,16.6170155 C23.8346499,16.6170155 23.679492,16.7832658 23.679492,16.9873003 L23.679492,17.4044375 L23.679492,17.4054451 L19.1245683,17.4054451 L19.1245683,16.2089465 L23.925001,11.0964966 C24.160576,10.8456097 24.160576,10.439052 23.925001,10.1881652 C23.6894259,9.93727828 23.3072078,9.93727828 23.0716328,10.1881652 L18.2120698,15.3635887 L17.4353344,15.3635887 L17.4353344,17.4054451 L16.7858474,17.4054451 L16.7858474,11.8300132 C16.7858474,11.6521757 16.6510304,11.5085959 16.4840465,11.5085959 L16.1023014,11.5085959 L16.1023014,11.2995235 C16.1023014,11.095489 15.9466705,10.9302462 15.7550884,10.9302462 C15.5635063,10.9302462 15.4078754,11.095489 15.4078754,11.2995235 L15.4078754,11.5085959 L12.7342406,11.5085959 C12.648147,11.5085959 12.5663107,11.5478914 12.5090725,11.6164067 L9.63013746,15.0648418 L8.05727201,15.0648418 C8.02983556,15.0638343 8.00287215,15.0633305 7.97638178,15.0633305 C6.48629872,15.0633305 5.89121158,16.2265791 5.7805197,16.8583304 L5.69584514,17.1641302 L5.36802686,17.1641302 C5.1646187,17.1641302 5,17.3394488 5,17.5555742 L5,19.4689645 C5,19.6357186 5.09791974,19.7772833 5.23510199,19.8342115 C5.27247233,19.8513403 5.31268092,19.8609123 5.35430864,19.8609123 L6.31080005,19.8609123 C6.39358244,21.054892 7.33162521,22 8.47354918,22 C9.61547315,22 10.5535159,21.054892 10.6362983,19.8609123 L20.7958265,19.8609123 C20.8781359,21.054892 21.8166517,22 22.9585757,22 C24.1004996,22 25.0385424,21.054892 25.1208517,19.8609123 L26.6989207,19.8609123 C26.8195464,19.8609123 26.9283461,19.7843364 26.9756504,19.6664498 C27.0229546,19.5480594 27.0002486,19.4110288 26.9169931,19.3183316 L26.9169931,19.3183316 Z M8.47354918,20.8488423 C7.87325857,20.8488423 7.38507898,20.3289322 7.38507898,19.689624 C7.38507898,19.0503159 7.87325857,18.5304058 8.47354918,18.5304058 C9.07383978,18.5304058 9.56201938,19.0503159 9.56201938,19.689624 C9.56201938,20.3289322 9.07383978,20.8488423 8.47354918,20.8488423 L8.47354918,20.8488423 Z M15.4305814,14.849724 L11.8278917,14.849724 L13.589501,12.6647915 L15.4305814,12.6647915 L15.4305814,14.849724 Z M22.9585757,20.8488423 C22.357812,20.8488423 21.8701055,20.3289322 21.8701055,19.689624 C21.8701055,19.0503159 22.357812,18.5304058 22.9585757,18.5304058 C23.5588663,18.5304058 24.0470459,19.0503159 24.0470459,19.689624 C24.0470459,20.3289322 23.5588663,20.8488423 22.9585757,20.8488423 L22.9585757,20.8488423 Z" id="Tow-Truck"></path>
        </g>
    </g>
</svg>