<?xml version="1.0" encoding="UTF-8"?>
<svg width="13px" height="16px" viewBox="0 0 13 16" version="1.1" xmlns="http://www.w3.org/2000/svg" xmlns:xlink="http://www.w3.org/1999/xlink">
    <!-- Generator: Sketch 44.1 (41455) - http://www.bohemiancoding.com/sketch -->
    <title>Lockout</title>
    <desc>Created with Sketch.</desc>
    <defs></defs>
    <g id="Symbols" stroke="none" stroke-width="1" fill="none" fill-rule="evenodd">
        <g id="Icon---Lockout" transform="translate(-10.000000, -8.000000)" fill="#364347">
            <path d="M20.6666667,13.3333333 C21.0730179,13.3333333 21.4285699,13.4857128 21.7333333,13.7904762 C22.0380968,14.0952396 22.1904762,14.4507916 22.1904762,14.8571429 L22.1904762,22.4761905 C22.1904762,22.8825417 22.0380968,23.2380937 21.7333333,23.5428571 C21.4285699,23.8476206 21.0730179,24 20.6666667,24 L11.5238095,24 C11.1174583,24 10.7619063,23.8476206 10.4571429,23.5428571 C10.1523794,23.2380937 10,22.8825417 10,22.4761905 L10,14.8571429 C10,14.4507916 10.1523794,14.0952396 10.4571429,13.7904762 C10.7619063,13.4857128 11.1174583,13.3333333 11.5238095,13.3333333 L12.2857143,13.3333333 L12.2857143,11.8095238 C12.2857143,10.7682488 12.6603137,9.87301962 13.4095238,9.12380952 C14.1587339,8.37459943 15.053963,8 16.0952381,8 C17.1365131,8 18.0317423,8.37459943 18.7809524,9.12380952 C19.5301625,9.87301962 19.9047619,10.7682488 19.9047619,11.8095238 L19.9047619,13.3333333 L20.6666667,13.3333333 Z M16.0952381,20.2666667 C16.5015893,20.2666667 16.8571413,20.1142872 17.1619048,19.8095238 C17.4666682,19.5047604 17.6190476,19.1492084 17.6190476,18.7428571 C17.6190476,18.3365059 17.4666682,17.9809539 17.1619048,17.6761905 C16.8571413,17.371427 16.5015893,17.2190476 16.0952381,17.2190476 C15.6888869,17.2190476 15.3333349,17.371427 15.0285714,17.6761905 C14.723808,17.9809539 14.5714286,18.3365059 14.5714286,18.7428571 C14.5714286,19.1492084 14.723808,19.5047604 15.0285714,19.8095238 C15.3333349,20.1142872 15.6888869,20.2666667 16.0952381,20.2666667 Z M18.4571429,13.3333333 L18.4571429,11.8095238 C18.4571429,11.149203 18.2285737,10.5904785 17.7714286,10.1333333 C17.3142834,9.67618819 16.7555589,9.44761905 16.0952381,9.44761905 C15.4349173,9.44761905 14.8761928,9.67618819 14.4190476,10.1333333 C13.9619025,10.5904785 13.7333333,11.149203 13.7333333,11.8095238 L13.7333333,13.3333333 L18.4571429,13.3333333 Z" id="Lockout"></path>
        </g>
    </g>
</svg>