<?xml version="1.0" encoding="UTF-8"?>
<svg width="16px" height="12px" viewBox="0 0 16 12" version="1.1" xmlns="http://www.w3.org/2000/svg" xmlns:xlink="http://www.w3.org/1999/xlink">
    <!-- Generator: Sketch 44.1 (41455) - http://www.bohemiancoding.com/sketch -->
    <title>Battery</title>
    <desc>Created with Sketch.</desc>
    <defs></defs>
    <g id="Symbols" stroke="none" stroke-width="1" fill="none" fill-rule="evenodd">
        <g id="Icon---Battery" transform="translate(-8.000000, -10.000000)" fill="#364347">
            <path d="M23.5496628,11.4926816 L20.7136816,11.4926816 L20.7136816,10.5195376 C20.7136816,10.2326052 20.5120585,10 20.2633444,10 L18.3243799,10 C18.0756658,10 17.8740427,10.2326052 17.8740427,10.5195376 L17.8740427,11.4926816 L13.977826,11.4926816 L13.977826,10.5195376 C13.977826,10.2326052 13.776203,10 13.5274889,10 L11.5885244,10 C11.3398103,10 11.1381872,10.2326052 11.1381872,10.5195376 L11.1381872,11.4926816 L8.45033718,11.4926816 C8.20162304,11.4926816 8,11.7252868 8,12.0122192 L8,12.8846205 C8,13.1715529 8.20162304,13.4041581 8.45033718,13.4041581 L8.6825923,13.4041581 L8.6825923,21.4445958 C8.6825923,21.7515714 8.89838839,22 9.16401874,22 L22.8355241,22 C23.1016116,22 23.3169505,21.7515714 23.3169505,21.4445958 L23.3169505,13.4041581 L23.5496628,13.4041581 C23.798377,13.4041581 24,13.1715529 24,12.8846205 L24,12.0122192 C24,11.7252868 23.798377,11.4926816 23.5496628,11.4926816" id="Battery"></path>
        </g>
    </g>
</svg>